#define clock_width 16
#define clock_height 16
static unsigned char clock_bits[] = {
   0xc0, 0x03, 0x70, 0x0e, 0x18, 0x18, 0x0c, 0x30, 0x86, 0x60, 0x82, 0x40,
   0x83, 0xc0, 0x81, 0x80, 0x81, 0x83, 0x03, 0xc6, 0x02, 0x40, 0x06, 0x60,
   0x0c, 0x30, 0x18, 0x18, 0x70, 0x0e, 0xc0, 0x03 };
