#define compass_width 16
#define compass_height 16
static unsigned char compass_bits[] = {
   0xe0, 0x07, 0x38, 0x1c, 0x0c, 0x30, 0x06, 0x60, 0x02, 0x4c, 0x03, 0xce,
   0x81, 0x87, 0xc1, 0x83, 0xc1, 0x83, 0xe1, 0x81, 0x73, 0xc0, 0x32, 0x40,
   0x06, 0x60, 0x0c, 0x30, 0x38, 0x1c, 0xe0, 0x07 };
