#define microsd_width 16
#define microsd_height 16
static unsigned char microsd_bits[] = {
   0x00, 0x00, 0x00, 0x00, 0xf0, 0x1f, 0x50, 0x15, 0x50, 0x15, 0x50, 0x15,
   0xf0, 0x1f, 0xf0, 0x1f, 0xf8, 0x1f, 0xf8, 0x1f, 0xf8, 0x1f, 0xf8, 0x1f,
   0xf8, 0x1f, 0xf8, 0x1f, 0x00, 0x00, 0x00, 0x00 };
