#define padlock_width 16
#define padlock_height 16
static unsigned char padlock_bits[] = {
   0xc0, 0x03, 0x60, 0x06, 0x30, 0x0c, 0x10, 0x08, 0x10, 0x08, 0x10, 0x08,
   0xf8, 0x1f, 0x0c, 0x30, 0x04, 0x20, 0xc4, 0x23, 0xc4, 0x23, 0x84, 0x21,
   0x84, 0x21, 0x04, 0x20, 0x0c, 0x30, 0xf8, 0x1f };
