#define point_width 16
#define point_height 16
static unsigned char point_bits[] = {
   0xe0, 0x07, 0xf8, 0x1f, 0x3c, 0x3c, 0x0e, 0x70, 0x86, 0x61, 0x87, 0xe1,
   0xc3, 0xc3, 0xc3, 0xc3, 0xe3, 0xc7, 0xe3, 0xc7, 0x67, 0xe6, 0x26, 0x64,
   0x0e, 0x70, 0x3c, 0x3c, 0xf8, 0x1f, 0xe0, 0x07 };
