#define position_width 16
#define position_height 16
static unsigned char position_bits[] = {
   0xc0, 0x03, 0xf0, 0x0f, 0x38, 0x1c, 0x18, 0x18, 0x8c, 0x31, 0xcc, 0x33,
   0xcc, 0x33, 0x8c, 0x31, 0x18, 0x18, 0x38, 0x1c, 0xf0, 0x0f, 0xf0, 0x0f,
   0xe0, 0x07, 0xc0, 0x03, 0xc0, 0x03, 0x80, 0x01 };
