#define sat_width 16
#define sat_height 16
static unsigned char sat_bits[] = {
   0x08, 0x00, 0x14, 0x00, 0x22, 0x00, 0x41, 0x00, 0x82, 0x02, 0x84, 0x07,
   0xc8, 0x0f, 0xf0, 0x07, 0xe0, 0x0f, 0xf0, 0x13, 0xe0, 0x21, 0x40, 0x41,
   0x00, 0x82, 0x00, 0x44, 0x00, 0x28, 0x00, 0x10 };
