#define sd_width 16
#define sd_height 16
static unsigned char sd_bits[] = {
   0xf8, 0x3f, 0xac, 0x2a, 0xaa, 0x2a, 0xaa, 0x2a, 0xfa, 0x3f, 0xfe, 0x3f,
   0xfe, 0x3f, 0xfe, 0x3f, 0xfe, 0x3f, 0xfe, 0x3f, 0xfe, 0x3f, 0xfe, 0x3f,
   0xfe, 0x3f, 0xfe, 0x3f, 0xfe, 0x3f, 0xfe, 0x3f };
