G04 #@! TF.FileFunction,Legend,Top*
%FSLAX46Y46*%
G04 Gerber Fmt 4.6, Leading zero omitted, Abs format (unit mm)*
G04 Created by KiCad (PCBNEW 4.0.6) date Thu Aug  3 21:50:21 2017*
%MOMM*%
%LPD*%
G01*
G04 APERTURE LIST*
%ADD10C,0.100000*%
%ADD11C,0.200000*%
%ADD12C,0.150000*%
G04 APERTURE END LIST*
D10*
D11*
X100959200Y-51147600D02*
X100959200Y-78947600D01*
X128259200Y-51147600D02*
X100959200Y-51147600D01*
X128259200Y-78947600D02*
X128259200Y-51147600D01*
X100959200Y-78947600D02*
X128259200Y-78947600D01*
D12*
X118568000Y-79766000D02*
X118568000Y-85766000D01*
X118568000Y-85766000D02*
X112568000Y-85766000D01*
X112568000Y-85766000D02*
X112568000Y-79766000D01*
X112568000Y-79766000D02*
X118568000Y-79766000D01*
X112069200Y-53917600D02*
X119689200Y-53917600D01*
X112069200Y-51377600D02*
X119689200Y-51377600D01*
X109249200Y-51097600D02*
X110799200Y-51097600D01*
X119689200Y-53917600D02*
X119689200Y-51377600D01*
X112069200Y-51377600D02*
X112069200Y-53917600D01*
X110799200Y-54197600D02*
X109249200Y-54197600D01*
X109249200Y-54197600D02*
X109249200Y-51097600D01*
X96350000Y-51270000D02*
X91270000Y-51270000D01*
X99170000Y-50990000D02*
X99170000Y-52540000D01*
X98890000Y-53810000D02*
X96350000Y-53810000D01*
X96350000Y-53810000D02*
X96350000Y-51270000D01*
X91270000Y-51270000D02*
X91270000Y-56350000D01*
X91270000Y-56350000D02*
X96350000Y-56350000D01*
X99170000Y-50990000D02*
X97620000Y-50990000D01*
X98890000Y-56350000D02*
X98890000Y-53810000D01*
X96350000Y-56350000D02*
X98890000Y-56350000D01*
X133934000Y-51790000D02*
X131234000Y-51790000D01*
X133934000Y-53290000D02*
X131234000Y-53290000D01*
X132434000Y-52390000D02*
X132434000Y-52640000D01*
X132434000Y-52640000D02*
X132584000Y-52490000D01*
X132684000Y-52890000D02*
X132684000Y-52190000D01*
X132334000Y-52540000D02*
X131984000Y-52540000D01*
X132684000Y-52540000D02*
X132334000Y-52890000D01*
X132334000Y-52890000D02*
X132334000Y-52190000D01*
X132334000Y-52190000D02*
X132684000Y-52540000D01*
X131734000Y-55475000D02*
X132934000Y-55475000D01*
X132934000Y-57225000D02*
X131734000Y-57225000D01*
X131397000Y-84884000D02*
X131397000Y-90884000D01*
X131397000Y-90884000D02*
X125397000Y-90884000D01*
X125397000Y-90884000D02*
X125397000Y-84884000D01*
X125397000Y-84884000D02*
X131397000Y-84884000D01*
X118518000Y-88910000D02*
X118518000Y-94910000D01*
X118518000Y-94910000D02*
X112518000Y-94910000D01*
X112518000Y-94910000D02*
X112518000Y-88910000D01*
X112518000Y-88910000D02*
X118518000Y-88910000D01*
X105700000Y-84884000D02*
X105700000Y-90884000D01*
X105700000Y-90884000D02*
X99700000Y-90884000D01*
X99700000Y-90884000D02*
X99700000Y-84884000D01*
X99700000Y-84884000D02*
X105700000Y-84884000D01*
X113105715Y-87644571D02*
X113105715Y-86144571D01*
X113677143Y-86144571D01*
X113820001Y-86216000D01*
X113891429Y-86287429D01*
X113962858Y-86430286D01*
X113962858Y-86644571D01*
X113891429Y-86787429D01*
X113820001Y-86858857D01*
X113677143Y-86930286D01*
X113105715Y-86930286D01*
X115462858Y-87644571D02*
X114962858Y-86930286D01*
X114605715Y-87644571D02*
X114605715Y-86144571D01*
X115177143Y-86144571D01*
X115320001Y-86216000D01*
X115391429Y-86287429D01*
X115462858Y-86430286D01*
X115462858Y-86644571D01*
X115391429Y-86787429D01*
X115320001Y-86858857D01*
X115177143Y-86930286D01*
X114605715Y-86930286D01*
X116105715Y-86858857D02*
X116605715Y-86858857D01*
X116820001Y-87644571D02*
X116105715Y-87644571D01*
X116105715Y-86144571D01*
X116820001Y-86144571D01*
X117248572Y-86144571D02*
X117748572Y-87644571D01*
X118248572Y-86144571D01*
X113185619Y-54532381D02*
X113376096Y-54532381D01*
X113471334Y-54580000D01*
X113566572Y-54675238D01*
X113614191Y-54865714D01*
X113614191Y-55199048D01*
X113566572Y-55389524D01*
X113471334Y-55484762D01*
X113376096Y-55532381D01*
X113185619Y-55532381D01*
X113090381Y-55484762D01*
X112995143Y-55389524D01*
X112947524Y-55199048D01*
X112947524Y-54865714D01*
X112995143Y-54675238D01*
X113090381Y-54580000D01*
X113185619Y-54532381D01*
X114518953Y-55532381D02*
X114042762Y-55532381D01*
X114042762Y-54532381D01*
X114852286Y-55008571D02*
X115185620Y-55008571D01*
X115328477Y-55532381D02*
X114852286Y-55532381D01*
X114852286Y-54532381D01*
X115328477Y-54532381D01*
X115757048Y-55532381D02*
X115757048Y-54532381D01*
X115995143Y-54532381D01*
X116138001Y-54580000D01*
X116233239Y-54675238D01*
X116280858Y-54770476D01*
X116328477Y-54960952D01*
X116328477Y-55103810D01*
X116280858Y-55294286D01*
X116233239Y-55389524D01*
X116138001Y-55484762D01*
X115995143Y-55532381D01*
X115757048Y-55532381D01*
X93646810Y-57602381D02*
X93646810Y-56602381D01*
X94694429Y-57507143D02*
X94646810Y-57554762D01*
X94503953Y-57602381D01*
X94408715Y-57602381D01*
X94265857Y-57554762D01*
X94170619Y-57459524D01*
X94123000Y-57364286D01*
X94075381Y-57173810D01*
X94075381Y-57030952D01*
X94123000Y-56840476D01*
X94170619Y-56745238D01*
X94265857Y-56650000D01*
X94408715Y-56602381D01*
X94503953Y-56602381D01*
X94646810Y-56650000D01*
X94694429Y-56697619D01*
X95075381Y-57554762D02*
X95218238Y-57602381D01*
X95456334Y-57602381D01*
X95551572Y-57554762D01*
X95599191Y-57507143D01*
X95646810Y-57411905D01*
X95646810Y-57316667D01*
X95599191Y-57221429D01*
X95551572Y-57173810D01*
X95456334Y-57126190D01*
X95265857Y-57078571D01*
X95170619Y-57030952D01*
X95123000Y-56983333D01*
X95075381Y-56888095D01*
X95075381Y-56792857D01*
X95123000Y-56697619D01*
X95170619Y-56650000D01*
X95265857Y-56602381D01*
X95503953Y-56602381D01*
X95646810Y-56650000D01*
X96075381Y-57602381D02*
X96075381Y-56602381D01*
X96456334Y-56602381D01*
X96551572Y-56650000D01*
X96599191Y-56697619D01*
X96646810Y-56792857D01*
X96646810Y-56935714D01*
X96599191Y-57030952D01*
X96551572Y-57078571D01*
X96456334Y-57126190D01*
X96075381Y-57126190D01*
X131595905Y-54897381D02*
X131595905Y-53897381D01*
X131834000Y-53897381D01*
X131976858Y-53945000D01*
X132072096Y-54040238D01*
X132119715Y-54135476D01*
X132167334Y-54325952D01*
X132167334Y-54468810D01*
X132119715Y-54659286D01*
X132072096Y-54754524D01*
X131976858Y-54849762D01*
X131834000Y-54897381D01*
X131595905Y-54897381D01*
X133119715Y-54897381D02*
X132548286Y-54897381D01*
X132834000Y-54897381D02*
X132834000Y-53897381D01*
X132738762Y-54040238D01*
X132643524Y-54135476D01*
X132548286Y-54183095D01*
X132167334Y-58707381D02*
X131834000Y-58231190D01*
X131595905Y-58707381D02*
X131595905Y-57707381D01*
X131976858Y-57707381D01*
X132072096Y-57755000D01*
X132119715Y-57802619D01*
X132167334Y-57897857D01*
X132167334Y-58040714D01*
X132119715Y-58135952D01*
X132072096Y-58183571D01*
X131976858Y-58231190D01*
X131595905Y-58231190D01*
X132548286Y-57802619D02*
X132595905Y-57755000D01*
X132691143Y-57707381D01*
X132929239Y-57707381D01*
X133024477Y-57755000D01*
X133072096Y-57802619D01*
X133119715Y-57897857D01*
X133119715Y-57993095D01*
X133072096Y-58135952D01*
X132500667Y-58707381D01*
X133119715Y-58707381D01*
X126809714Y-92691143D02*
X127024000Y-92762571D01*
X127381143Y-92762571D01*
X127524000Y-92691143D01*
X127595429Y-92619714D01*
X127666857Y-92476857D01*
X127666857Y-92334000D01*
X127595429Y-92191143D01*
X127524000Y-92119714D01*
X127381143Y-92048286D01*
X127095429Y-91976857D01*
X126952571Y-91905429D01*
X126881143Y-91834000D01*
X126809714Y-91691143D01*
X126809714Y-91548286D01*
X126881143Y-91405429D01*
X126952571Y-91334000D01*
X127095429Y-91262571D01*
X127452571Y-91262571D01*
X127666857Y-91334000D01*
X128309714Y-91976857D02*
X128809714Y-91976857D01*
X129024000Y-92762571D02*
X128309714Y-92762571D01*
X128309714Y-91262571D01*
X129024000Y-91262571D01*
X130381143Y-92762571D02*
X129666857Y-92762571D01*
X129666857Y-91262571D01*
X113177143Y-96788571D02*
X113177143Y-95288571D01*
X114034286Y-96788571D01*
X114034286Y-95288571D01*
X114748572Y-96002857D02*
X115248572Y-96002857D01*
X115462858Y-96788571D02*
X114748572Y-96788571D01*
X114748572Y-95288571D01*
X115462858Y-95288571D01*
X115962858Y-95288571D02*
X116962858Y-96788571D01*
X116962858Y-95288571D02*
X115962858Y-96788571D01*
X117320000Y-95288571D02*
X118177143Y-95288571D01*
X117748572Y-96788571D02*
X117748572Y-95288571D01*
X100580286Y-91976857D02*
X100794572Y-92048286D01*
X100866000Y-92119714D01*
X100937429Y-92262571D01*
X100937429Y-92476857D01*
X100866000Y-92619714D01*
X100794572Y-92691143D01*
X100651714Y-92762571D01*
X100080286Y-92762571D01*
X100080286Y-91262571D01*
X100580286Y-91262571D01*
X100723143Y-91334000D01*
X100794572Y-91405429D01*
X100866000Y-91548286D01*
X100866000Y-91691143D01*
X100794572Y-91834000D01*
X100723143Y-91905429D01*
X100580286Y-91976857D01*
X100080286Y-91976857D01*
X101508857Y-92334000D02*
X102223143Y-92334000D01*
X101366000Y-92762571D02*
X101866000Y-91262571D01*
X102366000Y-92762571D01*
X103723143Y-92619714D02*
X103651714Y-92691143D01*
X103437428Y-92762571D01*
X103294571Y-92762571D01*
X103080286Y-92691143D01*
X102937428Y-92548286D01*
X102866000Y-92405429D01*
X102794571Y-92119714D01*
X102794571Y-91905429D01*
X102866000Y-91619714D01*
X102937428Y-91476857D01*
X103080286Y-91334000D01*
X103294571Y-91262571D01*
X103437428Y-91262571D01*
X103651714Y-91334000D01*
X103723143Y-91405429D01*
X104366000Y-92762571D02*
X104366000Y-91262571D01*
X105223143Y-92762571D02*
X104580286Y-91905429D01*
X105223143Y-91262571D02*
X104366000Y-92119714D01*
M02*
