G04 #@! TF.FileFunction,Soldermask,Bot*
%FSLAX46Y46*%
G04 Gerber Fmt 4.6, Leading zero omitted, Abs format (unit mm)*
G04 Created by KiCad (PCBNEW 4.0.6) date Thu Aug  3 21:50:21 2017*
%MOMM*%
%LPD*%
G01*
G04 APERTURE LIST*
%ADD10C,0.100000*%
%ADD11R,1.543000X0.908000*%
%ADD12R,2.127200X2.432000*%
%ADD13O,2.127200X2.432000*%
%ADD14R,2.127200X2.127200*%
%ADD15O,2.127200X2.127200*%
%ADD16R,1.650000X1.900000*%
%ADD17R,1.900000X1.650000*%
%ADD18R,1.900000X1.700000*%
%ADD19R,2.000000X1.100000*%
%ADD20R,1.800000X1.600000*%
%ADD21R,1.800000X2.000000*%
%ADD22R,2.600000X1.600000*%
%ADD23C,1.400000*%
%ADD24R,2.600000X1.500000*%
%ADD25R,1.900000X1.600000*%
%ADD26R,1.700000X1.900000*%
%ADD27R,3.700000X3.900000*%
%ADD28R,4.400000X4.400000*%
%ADD29R,2.432000X2.127200*%
%ADD30O,2.432000X2.127200*%
%ADD31R,2.400000X2.900000*%
%ADD32R,1.600000X1.000000*%
%ADD33R,1.000000X1.600000*%
%ADD34R,2.200860X3.900120*%
%ADD35R,2.300000X1.200000*%
%ADD36R,2.400000X1.200000*%
G04 APERTURE END LIST*
D10*
D11*
X126068000Y-83439000D03*
X126068000Y-84709000D03*
X126068000Y-85979000D03*
X126068000Y-87249000D03*
X132418000Y-87249000D03*
X132418000Y-85979000D03*
X132418000Y-84709000D03*
X132418000Y-83439000D03*
D12*
X110799200Y-52647600D03*
D13*
X113339200Y-52647600D03*
X115879200Y-52647600D03*
X118419200Y-52647600D03*
D14*
X97620000Y-52540000D03*
D15*
X97620000Y-55080000D03*
X95080000Y-52540000D03*
X95080000Y-55080000D03*
X92540000Y-52540000D03*
X92540000Y-55080000D03*
D16*
X121412000Y-57892000D03*
X121412000Y-55392000D03*
D17*
X116142000Y-79210000D03*
X113642000Y-79210000D03*
D18*
X122094000Y-70866000D03*
X124794000Y-70866000D03*
D16*
X106934000Y-52344000D03*
X106934000Y-54844000D03*
D19*
X105242000Y-71238000D03*
X105242000Y-70138000D03*
X105242000Y-69038000D03*
X105242000Y-67938000D03*
X105242000Y-66838000D03*
X105242000Y-65738000D03*
X105242000Y-64638000D03*
X105242000Y-63538000D03*
D20*
X104642000Y-73538000D03*
D21*
X104642000Y-58938000D03*
D22*
X95042000Y-58038000D03*
X95142000Y-73538000D03*
D19*
X105242000Y-72338000D03*
D23*
X94742000Y-70738000D03*
X94742000Y-62738000D03*
D24*
X132588000Y-96880000D03*
X132588000Y-93980000D03*
D25*
X130838000Y-95430000D03*
D26*
X127762000Y-95330000D03*
X127762000Y-92630000D03*
D18*
X127588000Y-89916000D03*
X124888000Y-89916000D03*
X111332000Y-68834000D03*
X108632000Y-68834000D03*
X111332000Y-73914000D03*
X108632000Y-73914000D03*
X111332000Y-71374000D03*
X108632000Y-71374000D03*
D17*
X122194000Y-73406000D03*
X124694000Y-73406000D03*
D27*
X97536000Y-95900000D03*
X97536000Y-80100000D03*
D28*
X97536000Y-88000000D03*
D17*
X130493000Y-81280000D03*
X127993000Y-81280000D03*
D29*
X137668000Y-72136000D03*
D30*
X137668000Y-74676000D03*
X137668000Y-77216000D03*
X137668000Y-79756000D03*
X137668000Y-82296000D03*
D26*
X101346000Y-52244000D03*
X101346000Y-54944000D03*
X104140000Y-54944000D03*
X104140000Y-52244000D03*
D18*
X122094000Y-61722000D03*
X124794000Y-61722000D03*
D29*
X137668000Y-52324000D03*
D30*
X137668000Y-54864000D03*
X137668000Y-57404000D03*
D31*
X125222000Y-58193000D03*
X125222000Y-52043000D03*
D32*
X118888000Y-59392000D03*
X118888000Y-60192000D03*
X118888000Y-60992000D03*
X118888000Y-61792000D03*
X118888000Y-62592000D03*
X118888000Y-63392000D03*
X118888000Y-64192000D03*
X118888000Y-64992000D03*
D33*
X117438000Y-66442000D03*
X116638000Y-66442000D03*
X115838000Y-66442000D03*
X115038000Y-66442000D03*
X114238000Y-66442000D03*
X113438000Y-66442000D03*
X112638000Y-66442000D03*
X111838000Y-66442000D03*
D32*
X110388000Y-64992000D03*
X110388000Y-64192000D03*
X110388000Y-63392000D03*
X110388000Y-62592000D03*
X110388000Y-61792000D03*
X110388000Y-60992000D03*
X110388000Y-60192000D03*
X110388000Y-59392000D03*
D33*
X111838000Y-57942000D03*
X112638000Y-57942000D03*
X113438000Y-57942000D03*
X114238000Y-57942000D03*
X115038000Y-57942000D03*
X115838000Y-57942000D03*
X116638000Y-57942000D03*
X117438000Y-57942000D03*
D34*
X133096000Y-62270640D03*
X133096000Y-67269360D03*
X129032000Y-62270640D03*
X129032000Y-67269360D03*
D29*
X137668000Y-62230000D03*
D30*
X137668000Y-64770000D03*
X137668000Y-67310000D03*
D35*
X124944000Y-64074000D03*
X124944000Y-65974000D03*
X121944000Y-65024000D03*
D18*
X122094000Y-68326000D03*
X124794000Y-68326000D03*
D36*
X120796000Y-82482000D03*
X120796000Y-83582000D03*
X120796000Y-84682000D03*
X120796000Y-85782000D03*
X120796000Y-86882000D03*
X120796000Y-87982000D03*
X120796000Y-89082000D03*
X120796000Y-92082000D03*
X120796000Y-93182000D03*
X120796000Y-94282000D03*
X120796000Y-95382000D03*
X120796000Y-96482000D03*
X108996000Y-96482000D03*
X108996000Y-95382000D03*
X108996000Y-94282000D03*
X108996000Y-93182000D03*
X108996000Y-92082000D03*
X108996000Y-89082000D03*
X108996000Y-87982000D03*
X108996000Y-86882000D03*
X108996000Y-85782000D03*
X108996000Y-84682000D03*
X108996000Y-83582000D03*
X108996000Y-82482000D03*
M02*
