M48
;DRILL file {KiCad 4.0.6} date Thu Aug  3 21:50:26 2017
;FORMAT={-:-/ absolute / inch / decimal}
FMAT,2
INCH,TZ
T1C0.020
T2C0.040
%
G90
G05
M72
T1
X3.6Y-3.
X3.6Y-3.1
X3.6Y-3.2
X3.6Y-3.3
X3.6Y-3.4
X3.6Y-3.5
X3.6Y-3.6
X3.6Y-3.7
X3.6Y-3.8
X3.6Y-3.9
X3.94Y-2.69
X4.06Y-2.63
X4.2Y-3.61
X4.2Y-3.66
X4.2Y-3.71
X4.2Y-3.76
X4.2Y-3.81
X4.22Y-2.59
X4.28Y-2.39
X4.36Y-2.19
X4.3622Y-2.0727
X4.4032Y-2.4785
X4.4323Y-2.41
X4.47Y-2.45
X4.4734Y-2.5577
X4.475Y-3.61
X4.475Y-3.66
X4.475Y-3.71
X4.48Y-2.69
X4.4944Y-2.1902
X4.4958Y-2.3525
X4.4958Y-2.3525
X4.52Y-3.61
X4.52Y-3.66
X4.52Y-3.71
X4.5446Y-2.6901
X4.57Y-2.55
X4.57Y-3.61
X4.57Y-3.66
X4.57Y-3.71
X4.59Y-2.69
X4.62Y-2.45
X4.62Y-2.55
X4.62Y-3.61
X4.62Y-3.66
X4.62Y-3.71
X4.6403Y-2.6897
X4.72Y-2.27
X4.75Y-2.35
X4.77Y-2.96
X4.8Y-2.49
X4.85Y-2.2
X4.85Y-2.29
X4.85Y-3.71
X4.85Y-3.71
X4.85Y-3.8
X4.85Y-3.8
X4.85Y-3.8
X4.91Y-3.71
X4.91Y-3.8
X4.94Y-2.14
X4.97Y-3.02
X4.97Y-3.2
X4.97Y-3.71
X4.97Y-3.8
X5.05Y-2.17
X5.09Y-3.71
X5.09Y-3.8
X5.11Y-2.07
X5.46Y-3.4
X5.46Y-3.5
X5.46Y-3.6
X5.46Y-3.7
X5.46Y-3.8
X5.46Y-3.9
T2
X3.6433Y-2.0685
X3.6433Y-2.1685
X3.7433Y-2.0685
X3.7433Y-2.1685
X3.8433Y-2.0685
X3.8433Y-2.1685
X4.3622Y-2.0727
X4.4622Y-2.0727
X4.5622Y-2.0727
X4.6622Y-2.0727
X5.42Y-2.06
X5.42Y-2.16
X5.42Y-2.26
X5.42Y-2.45
X5.42Y-2.55
X5.42Y-2.65
X5.42Y-2.84
X5.42Y-2.94
X5.42Y-3.04
X5.42Y-3.14
X5.42Y-3.24
T0
M30
